#Comment line ignore any data following # character 
#Hierarchical Translation and Rotation (.htr) file 
[Header]	
#Header keywords are followed by a single value 
FileType HTR		#Single word string
DataType HTRS		#Translation followed by rotation and scale data
FileVersion 1		#integer
NumSegments 64		#integer
NumFrames 3		#integer
DataFrameRate 30		#integer, data frame rate in this file
EulerRotationOrder ZYX
CalibrationUnits mm
RotationUnits Degrees
GlobalAxisofGravity Y
BoneLengthAxis Y
ScaleFactor 1.00
[SegmentNames&Hierarchy]
#CHILD	PARENT
Pinger_Root GLOBAL
Pelvis Pinger_Root
L_Hip Pelvis
R_Hip Pelvis
Rear_Leg01 Pelvis
Spine1 Pelvis
L_Leg01 L_Hip
L_Leg02 L_Leg01
L_Leg03 L_Leg02
L_Foot L_Leg03
L_Toe1_01 L_Foot
L_Toe2_01 L_Foot
L_Toe3_01 L_Foot
planeAlignerLeft L_Foot
L_Toe1_02 L_Toe1_01
L_Toe1_03 L_Toe1_02
L_Toe2_02 L_Toe2_01
L_Toe2_03 L_Toe2_02
L_Toe3_02 L_Toe3_01
L_Toe3_03 L_Toe3_02
planeLockWeightLeft planeAlignerLeft
R_Leg01 R_Hip
R_Leg02 R_Leg01
R_Leg03 R_Leg02
R_Foot R_Leg03
planeAlignerRight R_Foot
R_Toe1_01 R_Foot
R_Toe2_01 R_Foot
R_Toe3_01 R_Foot
planeLockWeightRight planeAlignerRight
R_Toe1_02 R_Toe1_01
R_Toe1_03 R_Toe1_02
R_Toe2_02 R_Toe2_01
R_Toe2_03 R_Toe2_02
R_Toe3_02 R_Toe3_01
R_Toe3_03 R_Toe3_02
Rear_Leg02 Rear_Leg01
Rear_Leg03 Rear_Leg02
Rear_Leg04 Rear_Leg03
Rear_Foot Rear_Leg04
planeAlignerCenter Rear_Foot
Rear_Toe1_01 Rear_Foot
Rear_Toe2_01 Rear_Foot
Rear_Toe3_01 Rear_Foot
planeLockWeightCenter planeAlignerCenter
Rear_Toe1_02 Rear_Toe1_01
Rear_Toe1_03 Rear_Toe1_02
Rear_Toe2_02 Rear_Toe2_01
Rear_Toe2_03 Rear_Toe2_02
Rear_Toe3_02 Rear_Toe3_01
Rear_Toe3_03 Rear_Toe3_02
Back_Bone Spine1
Head Spine1
Motor_Bone Back_Bone
Ping_Mechanism Back_Bone
BN_LookIK Head
bottomMouth Head
L_Mouth01 Head
L_mouthFront Head
mouthGun Head
R_Mouth01 Head
R_mouthFront Head
TopMouth Head
weapon_bone Head
[BasePosition]
#SegmentName Tx, Ty, Tz, Rx, Ry, Rz, BoneLength
Pinger_Root 0.000000 0.000000 0.000000 -90.000000 0.000000 0.000000 10.000000 
Pelvis 0.000000 0.000000 0.000000 0.000000 0.000000 0.000000 10.000000 
L_Hip 0.000000 0.000000 0.000000 0.000000 0.000000 0.000000 10.000000 
R_Hip 0.000000 0.000000 0.000000 0.000000 0.000000 0.000000 10.000000 
Rear_Leg01 0.000000 0.000000 0.000000 0.000000 0.000000 0.000000 10.000000 
Spine1 0.000000 0.000000 0.000000 0.000000 0.000000 0.000000 10.000000 
L_Leg01 0.000000 0.000000 0.000000 0.000000 0.000000 0.000000 10.000000 
L_Leg02 0.000000 0.000000 0.000000 0.000000 0.000000 0.000000 10.000000 
L_Leg03 0.000000 0.000000 0.000000 0.000000 0.000000 0.000000 10.000000 
L_Foot 0.000000 0.000000 0.000000 0.000000 0.000000 0.000000 10.000000 
L_Toe1_01 0.000000 0.000000 0.000000 0.000000 0.000000 0.000000 10.000000 
L_Toe2_01 0.000000 0.000000 0.000000 0.000000 0.000000 0.000000 10.000000 
L_Toe3_01 0.000000 0.000000 0.000000 0.000000 0.000000 0.000000 10.000000 
planeAlignerLeft 0.000000 0.000000 0.000000 0.000000 0.000000 0.000000 10.000000 
L_Toe1_02 0.000000 0.000000 0.000000 0.000000 0.000000 0.000000 10.000000 
L_Toe1_03 0.000000 0.000000 0.000000 0.000000 0.000000 0.000000 10.000000 
L_Toe2_02 0.000000 0.000000 0.000000 0.000000 0.000000 0.000000 10.000000 
L_Toe2_03 0.000000 0.000000 0.000000 0.000000 0.000000 0.000000 10.000000 
L_Toe3_02 0.000000 0.000000 0.000000 0.000000 0.000000 0.000000 10.000000 
L_Toe3_03 0.000000 0.000000 0.000000 0.000000 0.000000 0.000000 10.000000 
planeLockWeightLeft 0.000000 0.000000 0.000000 0.000000 0.000000 0.000000 10.000000 
R_Leg01 0.000000 0.000000 0.000000 0.000000 0.000000 0.000000 10.000000 
R_Leg02 0.000000 0.000000 0.000000 0.000000 0.000000 0.000000 10.000000 
R_Leg03 0.000000 0.000000 0.000000 0.000000 0.000000 0.000000 10.000000 
R_Foot 0.000000 0.000000 0.000000 0.000000 0.000000 0.000000 10.000000 
planeAlignerRight 0.000000 0.000000 0.000000 0.000000 0.000000 0.000000 10.000000 
R_Toe1_01 0.000000 0.000000 0.000000 0.000000 0.000000 0.000000 10.000000 
R_Toe2_01 0.000000 0.000000 0.000000 0.000000 0.000000 0.000000 10.000000 
R_Toe3_01 0.000000 0.000000 0.000000 0.000000 0.000000 0.000000 10.000000 
planeLockWeightRight 0.000000 0.000000 0.000000 0.000000 0.000000 0.000000 10.000000 
R_Toe1_02 0.000000 0.000000 0.000000 0.000000 0.000000 0.000000 10.000000 
R_Toe1_03 0.000000 0.000000 0.000000 0.000000 0.000000 0.000000 10.000000 
R_Toe2_02 0.000000 0.000000 0.000000 0.000000 0.000000 0.000000 10.000000 
R_Toe2_03 0.000000 0.000000 0.000000 0.000000 0.000000 0.000000 10.000000 
R_Toe3_02 0.000000 0.000000 0.000000 0.000000 0.000000 0.000000 10.000000 
R_Toe3_03 0.000000 0.000000 0.000000 0.000000 0.000000 0.000000 10.000000 
Rear_Leg02 0.000000 0.000000 0.000000 0.000000 0.000000 0.000000 10.000000 
Rear_Leg03 0.000000 0.000000 0.000000 0.000000 0.000000 0.000000 10.000000 
Rear_Leg04 0.000000 0.000000 0.000000 0.000000 0.000000 0.000000 10.000000 
Rear_Foot 0.000000 0.000000 0.000000 0.000000 0.000000 0.000000 10.000000 
planeAlignerCenter 0.000000 0.000000 0.000000 0.000000 0.000000 0.000000 10.000000 
Rear_Toe1_01 0.000000 0.000000 0.000000 0.000000 0.000000 0.000000 10.000000 
Rear_Toe2_01 0.000000 0.000000 0.000000 0.000000 0.000000 0.000000 10.000000 
Rear_Toe3_01 0.000000 0.000000 0.000000 0.000000 0.000000 0.000000 10.000000 
planeLockWeightCenter 0.000000 0.000000 0.000000 0.000000 0.000000 0.000000 10.000000 
Rear_Toe1_02 0.000000 0.000000 0.000000 0.000000 0.000000 0.000000 10.000000 
Rear_Toe1_03 0.000000 0.000000 0.000000 0.000000 0.000000 0.000000 10.000000 
Rear_Toe2_02 0.000000 0.000000 0.000000 0.000000 0.000000 0.000000 10.000000 
Rear_Toe2_03 0.000000 0.000000 0.000000 0.000000 0.000000 0.000000 10.000000 
Rear_Toe3_02 0.000000 0.000000 0.000000 0.000000 0.000000 0.000000 10.000000 
Rear_Toe3_03 0.000000 0.000000 0.000000 0.000000 0.000000 0.000000 10.000000 
Back_Bone 0.000000 0.000000 0.000000 0.000000 0.000000 0.000000 10.000000 
Head 0.000000 0.000000 0.000000 0.000000 0.000000 0.000000 10.000000 
Motor_Bone 0.000000 0.000000 0.000000 0.000000 0.000000 0.000000 10.000000 
Ping_Mechanism 0.000000 0.000000 0.000000 0.000000 0.000000 0.000000 10.000000 
BN_LookIK 0.000000 0.000000 0.000000 0.000000 0.000000 0.000000 10.000000 
bottomMouth 0.000000 0.000000 0.000000 0.000000 0.000000 0.000000 10.000000 
L_Mouth01 0.000000 0.000000 0.000000 0.000000 0.000000 0.000000 10.000000 
L_mouthFront 0.000000 0.000000 0.000000 0.000000 0.000000 0.000000 10.000000 
mouthGun 0.000000 0.000000 0.000000 0.000000 0.000000 0.000000 10.000000 
R_Mouth01 0.000000 0.000000 0.000000 0.000000 0.000000 0.000000 10.000000 
R_mouthFront 0.000000 0.000000 0.000000 0.000000 0.000000 0.000000 10.000000 
TopMouth 0.000000 0.000000 0.000000 0.000000 0.000000 0.000000 10.000000 
weapon_bone 0.000000 0.000000 0.000000 0.000000 0.000000 0.000000 10.000000 
#Beginning of Data. Separated by tabs
#Fr	Tx	Ty	Tz	Rx	Ry	Rz	SF
[Pinger_Root]
14 0.000000 0.000000 0.000000 -0.000075 -0.000000 -0.000020 0.000000
15 0.000000 0.000000 0.000000 -0.000075 -0.000000 -0.000020 0.000000
16 0.000000 0.000000 0.000000 -0.000075 -0.000000 -0.000020 0.000000
[Pelvis]
14 -38.886154 36.891685 3859.439697 -84.707085 -54.510590 98.414818 3859.812012
15 -146.295380 -205.628860 3941.368896 -86.917648 -53.613995 99.800537 3949.439697
16 -249.362579 -393.598083 4031.784424 -88.886971 -53.302452 100.843819 4058.619141
[L_Hip]
14 5.766392 125.831482 872.656799 -156.279068 -43.913597 63.112385 881.701050
15 5.766392 125.831482 872.656799 -151.689117 -41.489170 56.356171 881.701050
16 5.766392 125.831482 872.656799 -150.099487 -40.469296 53.933014 881.701050
[R_Hip]
14 5.765438 125.836372 -872.654907 30.640141 42.327110 136.813110 881.699829
15 5.765438 125.836372 -872.654907 29.760900 41.358883 138.500366 881.699829
16 5.765438 125.836372 -872.654907 29.426746 40.993092 139.145889 881.699829
[Rear_Leg01]
14 -192.298416 -925.602966 -0.001907 -153.047424 -25.778471 -163.245193 945.367432
15 -192.298416 -925.602966 -0.001907 -153.623596 -25.346901 -165.396347 945.367432
16 -192.298416 -925.602966 -0.001907 -153.831497 -24.396891 -167.387314 945.367432
[Spine1]
14 290.604584 5.007505 0.000477 -15.867154 9.948768 8.497692 290.647736
15 290.604584 5.007505 0.000477 -14.834792 10.368647 7.887136 290.647736
16 290.604584 5.007505 0.000477 -13.889758 10.604650 7.857118 290.647736
[L_Leg01]
14 761.932007 -0.002384 -0.069261 -12.546050 -42.117477 1.588588 761.932068
15 761.932007 -0.002384 -0.069261 -13.912089 -42.914696 -2.036242 761.932068
16 761.932007 -0.002384 -0.069261 -11.882353 -44.284645 -6.478598 761.932068
[L_Leg02]
14 1441.140503 -0.000954 -0.000715 1.399828 -0.244128 -118.342239 1441.140503
15 1441.140503 -0.000954 -0.000715 0.309936 -0.074490 -111.795959 1441.140503
16 1441.140503 -0.000954 -0.000715 -0.218899 0.086243 -104.433708 1441.140503
[L_Leg03]
14 1686.963989 -0.000715 -0.000954 -0.004563 0.000875 111.714371 1686.963989
15 1686.963989 -0.000715 -0.000954 0.012209 -0.005288 106.363174 1686.963989
16 1686.963989 -0.000715 -0.000954 0.026237 -0.006585 103.324005 1686.963989
[L_Foot]
14 3041.570068 -30.715107 11.297464 -5.697410 12.900033 39.071754 3041.746094
15 3041.570068 -30.715107 11.297464 -7.860817 13.789076 37.808430 3041.746094
16 3041.570068 -30.715107 11.297464 -9.710647 14.988225 35.898495 3041.746094
[L_Toe1_01]
14 -188.216690 -224.732346 -21.137953 81.542755 -12.854689 -174.452301 293.899567
15 -188.216690 -224.732346 -21.137953 78.245941 -12.918161 -172.497635 293.899567
16 -188.216690 -224.732346 -21.137953 75.302124 -12.243494 -170.791458 293.899567
[L_Toe2_01]
14 200.746536 -219.926590 148.838394 -61.272099 -14.714529 -55.394573 332.896027
15 200.746536 -219.926590 148.838394 -56.899315 -11.974591 -56.127106 332.896027
16 200.746536 -219.926590 148.838394 -54.415520 -9.237529 -56.898750 332.896027
[L_Toe3_01]
14 188.832520 -219.859131 -191.078659 -89.341469 17.637644 -57.680000 347.140900
15 188.832520 -219.859131 -191.078659 -87.369911 19.501465 -56.841316 347.140900
16 188.832520 -219.859131 -191.078659 -85.909050 21.926786 -56.611359 347.140900
[planeAlignerLeft]
14 105.241371 -612.204285 158.381317 0.000000 -89.472885 -100.788116 641.057312
15 100.258476 -630.863464 150.037720 -10.575944 -87.426102 -90.194077 656.164490
16 96.401054 -650.515015 127.655029 -10.750369 -84.644310 -89.976219 669.894592
[L_Toe1_02]
14 413.761139 0.000477 0.000000 0.001390 -25.142208 0.001390 413.761139
15 413.761139 0.000477 0.000000 0.001388 -25.465034 0.001388 413.761139
16 413.761139 0.000477 0.000000 0.001387 -25.555506 0.001387 413.761139
[L_Toe1_03]
14 464.317322 0.000358 -0.000089 0.005526 65.476189 0.005526 464.317322
15 464.317322 0.000358 -0.000089 0.005098 63.383438 0.005098 464.317322
16 464.317322 0.000358 -0.000089 0.004852 62.005169 0.004852 464.317322
[L_Toe2_02]
14 342.235809 -0.000477 0.000238 -0.002418 -57.833534 -0.002418 342.235809
15 342.235809 -0.000477 0.000238 -0.002431 -55.781696 -0.002431 342.235809
16 342.235809 -0.000477 0.000238 -0.002442 -54.159691 -0.002442 342.235809
[L_Toe2_03]
14 420.210846 -0.000715 0.000000 -0.000253 57.798187 -0.003892 420.210846
15 420.210846 -0.000715 0.000000 -0.000068 54.830669 -0.003736 420.210846
16 420.210846 -0.000715 0.000000 0.003704 52.661873 -0.001833 420.210846
[L_Toe3_02]
14 329.270111 0.000954 0.000000 0.001177 -81.815079 0.001177 329.270111
15 329.270111 0.000954 0.000000 0.001176 -82.077118 0.001176 329.270111
16 329.270111 0.000954 0.000000 0.001176 -82.070557 0.001176 329.270111
[L_Toe3_03]
14 439.137451 -0.001907 0.000954 -179.997910 72.829582 -179.994385 439.137451
15 439.137451 -0.001907 0.000954 -179.998184 71.611359 -179.994644 439.137451
16 439.137451 -0.001907 0.000954 -179.998184 71.635727 -179.994629 439.137451
[planeLockWeightLeft]
14 1000.000122 -0.000180 -0.000156 -0.011826 -0.004376 0.005620 1000.000122
15 1000.000122 -0.000194 -0.000156 -0.011826 -0.004376 0.005620 1000.000122
16 1000.000122 -0.000208 -0.000156 -0.011826 -0.004376 0.005620 1000.000122
[R_Leg01]
14 761.455627 -0.001907 -0.000358 169.487869 -1.380096 -13.507957 761.455688
15 761.455627 -0.001907 -0.000358 175.453888 -3.742572 -25.426796 761.455688
16 761.455627 -0.001907 -0.000358 179.792984 -7.847140 -28.770611 761.455688
[R_Leg02]
14 1441.140625 0.000000 -0.000238 -10.277250 -6.211406 -123.668816 1441.140625
15 1441.140625 0.000000 -0.000238 -9.787630 -3.610182 -125.075630 1441.140625
16 1441.140625 0.000000 -0.000238 -4.441441 -1.047012 -119.445206 1441.140625
[R_Leg03]
14 1686.963989 0.000954 0.001431 0.146388 -0.100828 150.089417 1686.963989
15 1686.963989 0.000954 0.001431 0.115386 -0.071915 142.057831 1686.963989
16 1686.963989 0.000954 0.001431 0.093168 -0.054960 136.209488 1686.963989
[R_Foot]
14 3041.560059 -30.531288 -11.204481 5.533999 -24.916050 32.442181 3041.734131
15 3041.560059 -30.531288 -11.204481 4.604239 -22.052130 31.220833 3041.734131
16 3041.560059 -30.531288 -11.204481 5.638479 -19.604877 27.695272 3041.734131
[planeAlignerRight]
14 -208.413956 -631.330688 -310.504700 -36.577137 -71.339012 -64.343925 733.776489
15 -191.874512 -691.785706 -320.367371 -36.577137 -71.339012 -64.343925 786.141541
16 -175.335037 -752.240906 -330.230072 -36.577137 -71.339012 -64.343925 840.036072
[R_Toe1_01]
14 -188.383347 -224.864899 21.052242 76.777969 1.235089 -163.230392 294.101532
15 -188.383347 -224.864899 21.052242 76.739304 1.691705 -160.232391 294.101532
16 -188.383347 -224.864899 21.052242 76.760841 2.255349 -156.976486 294.101532
[R_Toe2_01]
14 200.637817 -220.002121 -148.787384 -104.147263 29.440056 -64.169350 332.857574
15 200.637817 -220.002121 -148.787384 -106.403343 27.434898 -66.746162 332.857574
16 200.637817 -220.002121 -148.787384 -107.189575 26.175386 -67.860641 332.857574
[R_Toe3_01]
14 188.606735 -220.092957 191.126343 -56.813583 -3.319259 -77.081589 347.192566
15 188.606735 -220.092957 191.126343 -55.123913 -0.783574 -78.623894 347.192566
16 188.606735 -220.092957 191.126343 -54.774002 0.582390 -79.313889 347.192566
[planeLockWeightRight]
14 999.999695 0.000610 -0.000448 -0.011823 -0.004379 -0.000027 999.999695
15 999.999695 0.000610 -0.000434 -0.011823 -0.004379 -0.000027 999.999695
16 999.998718 0.000610 -0.000420 -0.011823 -0.004379 -0.000027 999.998779
[R_Toe1_02]
14 413.762085 0.000477 -0.000119 0.001387 -25.585058 0.001387 413.762085
15 413.762085 0.000477 -0.000119 0.001387 -25.647600 0.001387 413.762085
16 413.762085 0.000477 -0.000119 0.001388 -25.510670 0.001388 413.762085
[R_Toe1_03]
14 464.317810 0.000000 0.001088 0.003152 46.280045 0.003152 464.317810
15 464.317810 0.000000 0.001088 0.003128 45.919903 0.003128 464.317810
16 464.317810 0.000000 0.001088 0.003026 44.361343 0.003026 464.317810
[R_Toe2_02]
14 342.234741 -0.000954 0.000238 0.001193 -69.348579 0.001193 342.234741
15 342.234741 -0.000954 0.000238 0.001205 -63.623814 0.001205 342.234741
16 342.234741 -0.000954 0.000238 0.001229 -55.569138 0.001229 342.234741
[R_Toe2_03]
14 420.210846 0.000715 -0.000268 0.011360 78.139923 0.011360 420.210846
15 420.210846 0.000715 -0.000268 -0.004650 66.857414 -0.001081 420.210846
16 420.210846 0.000715 -0.000268 -0.003710 54.251972 -0.000036 420.210846
[R_Toe3_02]
14 329.270355 -0.000477 -0.000954 0.001185 -74.009918 0.001185 329.270355
15 329.270355 -0.000477 -0.000954 -0.002365 -68.460915 -0.002365 329.270355
16 329.270355 -0.000477 -0.000954 -0.002400 -60.827850 -0.002400 329.270355
[R_Toe3_03]
14 439.137939 0.000238 0.001431 0.017082 82.120865 0.017082 439.137939
15 439.137939 0.000238 0.001431 0.006947 70.547699 0.006947 439.137939
16 439.137939 0.000238 0.001431 0.004254 57.973347 0.004254 439.137939
[Rear_Leg02]
14 1162.777710 -0.029802 0.005960 0.256572 -3.093028 -77.655029 1162.777710
15 1162.777710 -0.029802 0.005960 0.033676 -0.228532 -80.513031 1162.777710
16 1162.777710 -0.029802 0.005960 -0.212602 0.959449 -82.332054 1162.777710
[Rear_Leg03]
14 607.192505 -0.013351 -0.073195 0.006513 -0.001991 62.201481 607.192505
15 607.192505 -0.013351 -0.073195 0.006479 -0.002097 64.088097 607.192505
16 607.192505 -0.013351 -0.073195 0.010629 -0.004814 65.082710 607.192505
[Rear_Leg04]
14 995.874512 -0.020504 -0.011921 -0.039954 -0.016589 54.174232 995.874573
15 995.874512 -0.020504 -0.011921 -0.040462 -0.015308 57.826450 995.874573
16 995.874512 -0.020504 -0.011921 -0.043180 -0.018906 59.773617 995.874573
[Rear_Foot]
14 3096.176270 -0.067472 -0.041425 -42.355000 85.903709 144.729813 3096.176270
15 3096.176270 -0.067472 -0.041425 -3.164637 85.522232 179.314560 3096.176270
16 3096.176270 -0.067472 -0.041425 9.507625 84.662338 -171.559006 3096.176270
[planeAlignerCenter]
14 48.464413 -92.002869 -773.526550 12.240770 -0.001473 179.998184 780.484924
15 41.356121 -92.650452 -761.513855 12.240769 -0.001473 179.998184 768.243286
16 38.661198 -94.495857 -747.131348 12.240770 -0.001473 179.998184 754.075195
[Rear_Toe1_01]
14 0.653352 83.966492 -371.173737 -1.624818 40.252884 87.318588 380.553192
15 0.653352 83.966492 -371.173737 -1.311721 39.326679 87.798386 380.553192
16 0.653352 83.966492 -371.173737 -1.178913 38.161381 87.986397 380.553192
[Rear_Toe2_01]
14 178.200760 -294.826019 -362.060547 -7.089487 31.171907 -65.548462 499.765686
15 178.200760 -294.826019 -362.060547 -7.254570 30.818609 -65.963905 499.765686
16 178.200760 -294.826019 -362.060547 -7.386212 30.201178 -66.178604 499.765686
[Rear_Toe3_01]
14 -153.359680 -308.780914 -362.060852 4.125658 31.536251 -108.503860 499.952881
15 -153.359680 -308.780914 -362.060852 4.050947 30.886953 -108.860786 499.952881
16 -153.359680 -308.780914 -362.060852 4.031415 30.154001 -108.965263 499.952881
[planeLockWeightCenter]
14 1000.000488 0.000305 -0.000200 -0.011814 -0.004373 -0.000015 1000.000488
15 1000.000488 0.000305 -0.000192 -0.011814 -0.004373 -0.000015 1000.000488
16 1000.000488 0.000305 -0.000184 -0.011814 -0.004373 -0.000015 1000.000488
[Rear_Toe1_02]
14 379.707825 0.194073 0.000477 0.000765 -33.432030 0.003224 379.707855
15 379.707825 0.194073 0.000477 0.001047 -33.515488 0.002279 379.707855
16 379.707825 0.194073 0.000477 0.001332 -33.598949 0.001332 379.707855
[Rear_Toe1_03]
14 500.129700 0.165701 0.000119 -0.004784 67.933411 -0.001222 500.129761
15 500.129700 0.165701 0.000119 0.006678 69.756050 0.006678 500.129761
16 500.129700 0.165701 0.000119 0.007498 71.989891 0.007498 500.129761
[Rear_Toe2_02]
14 340.494507 0.000238 -0.000954 0.001230 -55.278675 0.001230 340.494507
15 340.494507 0.000238 -0.000954 0.001226 -56.269066 0.001226 340.494507
16 340.494507 0.000238 -0.000954 0.001225 -56.706963 0.001225 340.494507
[Rear_Toe2_03]
14 433.103577 0.000000 0.000238 0.003458 50.318180 0.003458 433.103546
15 433.103577 0.000000 0.000238 0.003561 51.517784 0.003561 433.103546
16 433.103577 0.000000 0.000238 0.003610 52.056545 0.003610 433.103546
[Rear_Toe3_02]
14 340.494141 -0.000358 -0.000477 -0.002413 -58.649174 -0.002413 340.494171
15 340.494141 -0.000358 -0.000477 -0.002413 -58.566967 -0.002413 340.494171
16 340.494141 -0.000358 -0.000477 -0.002414 -58.484737 -0.002414 340.494171
[Rear_Toe3_03]
14 433.103577 0.001431 -0.000238 -0.000045 54.418762 -0.003717 433.103546
15 433.103577 0.001431 -0.000238 -0.000039 54.321499 -0.003713 433.103546
16 433.103577 0.001431 -0.000238 -0.000034 54.224220 -0.003708 433.103546
[Back_Bone]
14 1312.175781 -701.934692 0.000954 2.790756 -1.457651 -85.682373 1488.125488
15 1312.175781 -701.934692 0.000954 2.790756 -1.457651 -85.682373 1488.125488
16 1312.175781 -701.934692 0.000954 2.790756 -1.457651 -85.682373 1488.125488
[Head]
14 1406.159424 809.709290 0.001431 -1.623609 2.697531 7.613082 1622.625488
15 1406.159424 809.709290 0.001431 -1.623609 2.697531 7.613082 1622.625488
16 1406.159424 809.709290 0.001431 -1.623609 2.697531 7.613079 1622.625488
[Motor_Bone]
14 1158.364380 -417.834747 0.000477 3.394448 -1.301977 -115.970810 1231.419434
15 1158.364380 -417.834747 0.000477 3.394448 -1.301977 -115.970810 1231.419434
16 1158.364380 -417.834747 0.000477 3.394448 -1.301977 -115.970810 1231.419434
[Ping_Mechanism]
14 1361.762939 -523.713623 -41.885906 0.000103 -0.000053 82.120995 1459.598877
15 1364.982300 -524.541931 -47.071655 0.000103 -0.000053 82.120995 1463.057251
16 1365.482788 -524.682556 -50.907272 0.000103 -0.000053 82.120995 1463.703125
[BN_LookIK]
14 193.241119 1380.371704 -0.002861 0.000000 89.965736 -31.038179 1393.832153
15 193.241119 1380.371704 -0.002861 0.000000 89.965736 -31.038179 1393.832153
16 193.241119 1380.371704 -0.002861 0.000000 89.965736 -31.038179 1393.832153
[bottomMouth]
14 -435.092926 615.759399 -0.000954 -0.000022 0.000016 73.527184 753.966492
15 -435.092926 615.759399 -0.000954 -0.000022 0.000016 73.527184 753.966492
16 -435.092926 615.759399 -0.000954 -0.000022 0.000016 73.527184 753.966492
[L_Mouth01]
14 554.440979 7.658243 838.222046 150.204178 23.759130 109.605339 1005.027161
15 554.440979 7.658243 838.222046 150.204178 23.759130 109.605339 1005.027161
16 554.440979 7.658243 838.222046 150.204178 23.759130 109.605339 1005.027161
[L_mouthFront]
14 551.629089 934.514771 339.150421 0.000081 2.804060 79.119301 1136.941284
15 551.629089 934.514771 339.150421 0.000081 2.804060 79.119301 1136.941284
16 551.629089 934.514771 339.150421 0.000081 2.804060 79.119301 1136.941284
[mouthGun]
14 55.332661 1627.420898 0.000000 0.000023 0.000009 -11.038128 1628.361328
15 55.332661 1627.420898 0.000000 0.000023 0.000009 -11.038128 1628.361328
16 55.332661 1627.420898 0.000000 0.000023 0.000009 -11.038128 1628.361328
[R_Mouth01]
14 554.442383 7.659197 -838.223938 29.795891 -23.759109 109.605331 1005.029541
15 554.442383 7.659197 -838.223938 29.795891 -23.759109 109.605331 1005.029541
16 554.442383 7.659197 -838.223938 29.795891 -23.759109 109.605331 1005.029541
[R_mouthFront]
14 551.629089 934.514282 -339.151367 0.000029 -2.803930 79.119133 1136.941162
15 551.629089 934.514282 -339.151367 0.000029 -2.803930 79.119133 1136.941162
16 551.629089 934.514282 -339.151367 0.000029 -2.803930 79.119133 1136.941162
[TopMouth]
14 461.269867 -56.106091 -0.008583 -0.000059 -0.000268 92.025169 464.669525
15 461.269867 -56.106091 -0.008583 -0.000059 -0.000268 92.025169 464.669525
16 461.269867 -56.106091 -0.008583 -0.000059 -0.000268 92.025169 464.669525
[weapon_bone]
14 -987.239868 1448.372803 0.001431 0.000000 89.965736 -31.038221 1752.833740
15 -987.239868 1448.372803 0.001431 0.000000 89.965736 -31.038221 1752.833740
16 -987.239868 1448.372803 0.001431 0.000000 89.965736 -31.038221 1752.833740
